# Blender v2.69 (sub 0) OBJ File: ''
# www.blender.org
mtllib coin.mtl
o Mesh_Cylinder01
v 0.269134 0.080361 0.000000
v 0.233083 0.080361 0.134543
v 0.233083 -0.080533 0.134543
v 0.269134 -0.080533 -0.000000
v 0.134591 0.080361 0.233035
v 0.134591 -0.080533 0.233035
v 0.000048 0.080361 0.269086
v 0.000048 -0.080533 0.269086
v -0.134495 0.080361 0.233035
v -0.134495 -0.080533 0.233035
v -0.232987 0.080361 0.134543
v -0.232987 -0.080533 0.134543
v -0.269037 0.080361 0.000000
v -0.269037 -0.080533 0.000000
v -0.232987 0.080361 -0.134543
v -0.232987 -0.080533 -0.134543
v -0.134495 0.080361 -0.233035
v -0.134495 -0.080533 -0.233035
v 0.000048 0.080361 -0.269086
v 0.000048 -0.080533 -0.269086
v 0.134591 0.080361 -0.233035
v 0.134591 -0.080533 -0.233035
v 0.233083 0.080361 -0.134543
v 0.233083 -0.080533 -0.134543
v 0.269134 0.080361 0.000000
v 0.233083 0.080361 -0.134543
v 0.000064 0.080361 -0.000016
v 0.134591 0.080361 -0.233035
v 0.000048 0.080361 -0.269086
v -0.134495 0.080361 -0.233035
v -0.232987 0.080361 -0.134543
v -0.269037 0.080361 0.000000
v -0.232987 0.080361 0.134543
v -0.134495 0.080361 0.233035
v 0.000048 0.080361 0.269086
v 0.134591 0.080361 0.233035
v 0.233083 0.080361 0.134543
v 0.233083 -0.080533 -0.134543
v 0.269134 -0.080533 -0.000000
v 0.000064 -0.080533 -0.000016
v 0.134591 -0.080533 -0.233035
v 0.000048 -0.080533 -0.269086
v -0.134495 -0.080533 -0.233035
v -0.232987 -0.080533 -0.134543
v -0.269037 -0.080533 0.000000
v -0.232987 -0.080533 0.134543
v -0.134495 -0.080533 0.233035
v 0.000048 -0.080533 0.269086
v 0.134591 -0.080533 0.233035
v 0.233083 -0.080533 0.134543
vt 0.226369 0.103918
vt 0.295953 0.103918
vt 0.295953 0.184356
vt 0.226369 0.184356
vt 0.365521 0.103918
vt 0.365521 0.184356
vt 0.435078 0.103918
vt 0.435078 0.184356
vt 0.504630 0.103918
vt 0.504630 0.184356
vt 0.574181 0.103918
vt 0.574181 0.184356
vt 0.643737 0.103918
vt 0.643737 0.184356
vt 0.713306 0.103918
vt 0.713306 0.184356
vt 0.782890 0.103918
vt 0.782890 0.184356
vt 0.852494 0.103918
vt 0.852494 0.184356
vt 0.922119 0.103918
vt 0.922119 0.184356
vt 0.087139 0.103918
vt 0.156765 0.103918
vt 0.156765 0.184356
vt 0.087139 0.184356
vt 0.896158 0.412930
vt 0.872419 0.501525
vt 0.718989 0.412942
vt 0.807562 0.566382
vt 0.718979 0.412952
vt 0.718967 0.590121
vt 0.718963 0.412926
vt 0.630371 0.566382
vt 0.565514 0.501525
vt 0.541775 0.412930
vt 0.565514 0.324334
vt 0.630371 0.259477
vt 0.718967 0.235738
vt 0.807562 0.259477
vt 0.872419 0.324334
vt 0.445349 0.499160
vt 0.469088 0.410564
vt 0.291893 0.410560
vt 0.380492 0.564016
vt 0.291919 0.410576
vt 0.291897 0.587755
vt 0.291909 0.410586
vt 0.203301 0.564016
vt 0.138444 0.499159
vt 0.114705 0.410564
vt 0.138444 0.321968
vt 0.203301 0.257111
vt 0.291897 0.233372
vt 0.380492 0.257111
vt 0.445349 0.321968
vn 1.000000 -0.000000 -0.000000
vn 0.866025 -0.000000 0.500000
vn 0.500000 -0.000000 0.866025
vn -0.000000 -0.000000 1.000000
vn -0.500000 -0.000000 0.866025
vn -0.866025 -0.000000 0.500000
vn -1.000000 0.000000 0.000000
vn -0.866026 0.000000 -0.500000
vn -0.866025 0.000000 -0.500000
vn -0.500000 0.000000 -0.866025
vn -0.000001 0.000000 -1.000000
vn -0.000000 0.000000 -1.000000
vn 0.499999 0.000000 -0.866026
vn 0.500000 0.000000 -0.866026
vn 0.866025 0.000000 -0.500000
vn -0.000000 1.000000 0.000000
vn -0.000000 -1.000000 -0.000000
vn 0.000000 -0.999969 0.000000
usemtl (null)
s 1
f 1/1/1 2/2/2 3/3/2
f 4/4/1 1/1/1 3/3/2
f 2/2/2 5/5/3 6/6/3
f 6/6/3 3/3/2 2/2/2
f 5/5/3 7/7/4 8/8/4
f 8/8/4 6/6/3 5/5/3
f 7/7/4 9/9/5 10/10/5
f 10/10/5 8/8/4 7/7/4
f 9/9/5 11/11/6 12/12/6
f 12/12/6 10/10/5 9/9/5
f 11/11/6 13/13/7 14/14/7
f 14/14/7 12/12/6 11/11/6
f 13/13/7 15/15/8 16/16/9
f 16/16/9 14/14/7 13/13/7
f 15/15/8 17/17/10 18/18/10
f 18/18/10 16/16/9 15/15/8
f 17/17/10 19/19/11 20/20/12
f 20/20/12 18/18/10 17/17/10
f 19/19/11 21/21/13 22/22/14
f 22/22/14 20/20/12 19/19/11
f 21/23/13 23/24/15 24/25/15
f 24/25/15 22/26/14 21/23/13
f 23/24/15 1/1/1 4/4/1
f 4/4/1 24/25/15 23/24/15
s 2
f 25/27/16 26/28/16 27/29/16
f 26/28/16 28/30/16 27/31/16
f 28/30/16 29/32/16 27/33/16
f 29/32/16 30/34/16 27/33/16
f 30/34/16 31/35/16 27/33/16
f 31/35/16 32/36/16 27/33/16
f 32/36/16 33/37/16 27/33/16
f 33/37/16 34/38/16 27/33/16
f 34/38/16 35/39/16 27/33/16
f 35/39/16 36/40/16 27/33/16
f 36/40/16 37/41/16 27/33/16
f 37/41/16 25/27/16 27/33/16
s 3
f 38/42/17 39/43/17 40/44/18
f 41/45/17 38/42/17 40/46/18
f 42/47/17 41/45/17 40/48/18
f 43/49/17 42/47/17 40/44/18
f 44/50/17 43/49/17 40/44/18
f 45/51/17 44/50/17 40/44/18
f 46/52/17 45/51/17 40/44/18
f 47/53/17 46/52/17 40/44/18
f 48/54/17 47/53/17 40/44/18
f 49/55/17 48/54/17 40/44/18
f 50/56/17 49/55/17 40/44/18
f 39/43/17 50/56/17 40/44/18
