# Blender v2.69 (sub 0) OBJ File: ''
# www.blender.org
o Box02
v -0.356264 -0.355572 -0.392664
v -0.356264 0.354429 -0.392664
v 0.353737 0.354429 -0.392664
v 0.353737 -0.355572 -0.392664
v -0.356264 -0.355572 0.394737
v 0.353737 -0.355572 0.394737
v 0.353737 0.354429 0.394737
v -0.356264 0.354429 0.394737
v -0.356264 -0.394272 -0.353964
v 0.353737 -0.394272 -0.353964
v 0.353737 -0.394272 0.356037
v -0.356264 -0.394272 0.356037
v 0.392437 -0.355572 -0.353964
v 0.392437 0.354429 -0.353964
v 0.392437 0.354429 0.356037
v 0.392437 -0.355572 0.356037
v 0.353737 0.393129 -0.353964
v -0.356264 0.393129 -0.353964
v -0.356264 0.393129 0.356037
v 0.353737 0.393129 0.356037
v -0.394964 0.354429 -0.353964
v -0.394964 -0.355572 -0.353964
v -0.394964 -0.355572 0.356037
v -0.394964 0.354429 0.356037
vt 0.394171 0.938318
vt 0.394314 0.725844
vt 0.606788 0.725987
vt 0.606645 0.938461
vt 0.394622 0.268140
vt 0.607097 0.268281
vt 0.606955 0.480756
vt 0.394481 0.480613
vt 0.394774 0.039288
vt 0.607248 0.039428
vt 0.607107 0.251902
vt 0.394633 0.251762
vt 0.835650 0.709768
vt 0.623176 0.709621
vt 0.623323 0.497147
vt 0.835798 0.497294
vt 0.606799 0.709610
vt 0.394325 0.709465
vt 0.394470 0.496991
vt 0.606944 0.497135
vt 0.377945 0.709453
vt 0.165471 0.709305
vt 0.165619 0.496831
vt 0.378092 0.496979
vt 0.165459 0.725683
vt 0.151281 0.717484
vt 0.835639 0.726147
vt 0.849829 0.717968
vt 0.392123 0.717653
vt 0.377933 0.725832
vt 0.623165 0.726000
vt 0.608986 0.717800
vt 0.151440 0.488632
vt 0.165630 0.480452
vt 0.835809 0.480916
vt 0.849987 0.489115
vt 0.386292 0.482801
vt 0.615144 0.482957
vt 0.606634 0.954839
vt 0.394160 0.954696
vt 0.623335 0.480768
vt 0.378104 0.480601
vt 0.852029 0.709780
vt 0.852176 0.497306
vt 0.149240 0.496819
vt 0.149092 0.709293
vn 0.000000 0.000000 -1.000000
vn 0.000000 -0.000000 1.000000
vn 0.000000 -1.000000 -0.000000
vn 1.000000 0.000000 0.000000
vn 0.000000 1.000000 0.000000
vn -1.000000 0.000000 0.000000
vn -0.758790 -0.460563 -0.460564
vn -0.460562 -0.460563 -0.758791
vn -0.460563 -0.758791 -0.460563
vn 0.460563 -0.460563 -0.758791
vn 0.758791 -0.460562 -0.460563
vn 0.460563 -0.758791 -0.460563
vn -0.758791 0.460563 -0.460563
vn -0.460563 0.758791 -0.460563
vn -0.460563 0.460563 -0.758791
vn 0.460563 0.460563 -0.758791
vn 0.460563 0.758791 -0.460563
vn 0.758791 0.460563 -0.460563
vn -0.460563 -0.758791 0.460563
vn -0.460563 -0.460563 0.758791
vn -0.758791 -0.460563 0.460563
vn 0.758792 -0.460563 0.460562
vn 0.460564 -0.460563 0.758790
vn 0.460563 -0.758791 0.460562
vn -0.758791 0.460563 0.460562
vn -0.460563 0.460563 0.758790
vn -0.460563 0.758791 0.460562
vn 0.460563 0.758791 0.460563
vn 0.460564 0.460563 0.758790
vn 0.758792 0.460562 0.460562
s 1
f 1/1/1 2/2/1 3/3/1
f 4/4/1 1/1/1 3/3/1
s 2
f 5/5/2 6/6/2 7/7/2
f 7/7/2 8/8/2 5/5/2
s 3
f 9/9/3 10/10/3 11/11/3
f 11/11/3 12/12/3 9/9/3
s 4
f 13/13/4 14/14/4 15/15/4
f 15/15/4 16/16/4 13/13/4
s 5
f 17/17/5 18/18/5 19/19/5
f 19/19/5 20/20/5 17/17/5
s 6
f 21/21/6 22/22/6 23/23/6
f 23/23/6 24/24/6 21/21/6
s 7
f 22/22/7 1/25/8 9/26/9
f 4/27/10 13/13/11 10/28/12
f 21/21/13 18/29/14 2/30/15
f 3/31/16 17/32/17 14/14/18
f 12/33/19 5/34/20 23/23/21
f 16/16/22 6/35/23 11/36/24
f 24/24/25 8/37/26 19/19/27
f 20/20/28 7/38/29 15/15/30
f 1/25/8 22/22/7 21/21/13
f 2/30/15 1/25/8 21/21/13
f 2/2/15 18/18/14 17/17/17
f 17/17/17 3/3/16 2/2/15
f 3/31/16 14/14/18 13/13/11
f 13/13/11 4/27/10 3/31/16
f 4/4/10 10/39/12 9/40/9
f 9/40/9 1/1/8 4/4/10
f 5/5/20 12/12/19 11/11/24
f 11/11/24 6/6/23 5/5/20
f 6/35/23 16/16/22 15/15/30
f 15/15/30 7/41/29 6/35/23
f 7/7/29 20/20/28 19/19/27
f 19/19/27 8/8/26 7/7/29
f 8/42/26 24/24/25 23/23/21
f 23/23/21 5/34/20 8/42/26
f 10/43/12 13/13/11 16/16/22
f 16/16/22 11/44/24 10/43/12
f 12/45/19 23/23/21 22/22/7
f 22/22/7 9/46/9 12/45/19
f 14/14/18 17/17/17 20/20/28
f 20/20/28 15/15/30 14/14/18
f 18/18/14 21/21/13 24/24/25
f 24/24/25 19/19/27 18/18/14
